<mxfile host="app.diagrams.net" agent="Mozilla/5.0 (Windows NT 10.0; Win64; x64; rv:143.0) Gecko/20100101 Firefox/143.0" version="28.2.5">
  <diagram name="Page-1" id="oG6SBB2m-xc777sb1QVs">
    <mxGraphModel dx="1364" dy="1528" grid="1" gridSize="10" guides="1" tooltips="1" connect="1" arrows="1" fold="1" page="1" pageScale="1" pageWidth="850" pageHeight="1100" math="0" shadow="0">
      <root>
        <mxCell id="0" />
        <mxCell id="1" parent="0" />
        <mxCell id="u6wsT2iUxptD5N8L2kZE-1" value="" style="ellipse;html=1;shape=startState;fillColor=#000000;strokeColor=#ff0000;" vertex="1" parent="1">
          <mxGeometry x="120" y="100" width="30" height="30" as="geometry" />
        </mxCell>
        <mxCell id="u6wsT2iUxptD5N8L2kZE-2" value="" style="edgeStyle=orthogonalEdgeStyle;html=1;verticalAlign=bottom;endArrow=open;endSize=8;strokeColor=#ff0000;rounded=0;" edge="1" source="u6wsT2iUxptD5N8L2kZE-1" parent="1">
          <mxGeometry relative="1" as="geometry">
            <mxPoint x="135" y="170" as="targetPoint" />
          </mxGeometry>
        </mxCell>
        <mxCell id="u6wsT2iUxptD5N8L2kZE-5" style="edgeStyle=orthogonalEdgeStyle;rounded=0;orthogonalLoop=1;jettySize=auto;html=1;" edge="1" parent="1" source="u6wsT2iUxptD5N8L2kZE-3" target="u6wsT2iUxptD5N8L2kZE-4">
          <mxGeometry relative="1" as="geometry" />
        </mxCell>
        <mxCell id="u6wsT2iUxptD5N8L2kZE-3" value="Creată" style="rounded=1;whiteSpace=wrap;html=1;" vertex="1" parent="1">
          <mxGeometry x="75" y="170" width="120" height="60" as="geometry" />
        </mxCell>
        <mxCell id="u6wsT2iUxptD5N8L2kZE-4" value="În procesare" style="rounded=1;whiteSpace=wrap;html=1;" vertex="1" parent="1">
          <mxGeometry x="75" y="270" width="120" height="60" as="geometry" />
        </mxCell>
        <mxCell id="u6wsT2iUxptD5N8L2kZE-9" style="edgeStyle=orthogonalEdgeStyle;rounded=0;orthogonalLoop=1;jettySize=auto;html=1;" edge="1" parent="1" source="u6wsT2iUxptD5N8L2kZE-6" target="u6wsT2iUxptD5N8L2kZE-8">
          <mxGeometry relative="1" as="geometry" />
        </mxCell>
        <mxCell id="u6wsT2iUxptD5N8L2kZE-6" value="Plătită" style="rounded=1;whiteSpace=wrap;html=1;" vertex="1" parent="1">
          <mxGeometry x="75" y="380" width="120" height="60" as="geometry" />
        </mxCell>
        <mxCell id="u6wsT2iUxptD5N8L2kZE-11" style="edgeStyle=orthogonalEdgeStyle;rounded=0;orthogonalLoop=1;jettySize=auto;html=1;entryX=0.5;entryY=0;entryDx=0;entryDy=0;" edge="1" parent="1" source="u6wsT2iUxptD5N8L2kZE-8" target="u6wsT2iUxptD5N8L2kZE-10">
          <mxGeometry relative="1" as="geometry" />
        </mxCell>
        <mxCell id="u6wsT2iUxptD5N8L2kZE-8" value="Livrată" style="rounded=1;whiteSpace=wrap;html=1;" vertex="1" parent="1">
          <mxGeometry x="75" y="470" width="120" height="60" as="geometry" />
        </mxCell>
        <mxCell id="u6wsT2iUxptD5N8L2kZE-10" value="" style="ellipse;html=1;shape=endState;fillColor=#000000;strokeColor=#ff0000;" vertex="1" parent="1">
          <mxGeometry x="120" y="560" width="30" height="30" as="geometry" />
        </mxCell>
        <mxCell id="u6wsT2iUxptD5N8L2kZE-16" style="edgeStyle=orthogonalEdgeStyle;rounded=0;orthogonalLoop=1;jettySize=auto;html=1;entryX=0.5;entryY=0;entryDx=0;entryDy=0;exitX=0.5;exitY=1;exitDx=0;exitDy=0;" edge="1" parent="1" source="u6wsT2iUxptD5N8L2kZE-4" target="u6wsT2iUxptD5N8L2kZE-6">
          <mxGeometry relative="1" as="geometry">
            <mxPoint x="135.0000000000001" y="385" as="sourcePoint" />
          </mxGeometry>
        </mxCell>
        <mxCell id="u6wsT2iUxptD5N8L2kZE-20" value="[Achitare cu succes]" style="edgeLabel;html=1;align=center;verticalAlign=middle;resizable=0;points=[];" vertex="1" connectable="0" parent="u6wsT2iUxptD5N8L2kZE-16">
          <mxGeometry x="-0.5" y="-4" relative="1" as="geometry">
            <mxPoint x="4" y="8" as="offset" />
          </mxGeometry>
        </mxCell>
        <mxCell id="u6wsT2iUxptD5N8L2kZE-18" style="edgeStyle=orthogonalEdgeStyle;rounded=0;orthogonalLoop=1;jettySize=auto;html=1;entryX=0.5;entryY=0;entryDx=0;entryDy=0;exitX=1;exitY=0.5;exitDx=0;exitDy=0;" edge="1" parent="1" source="u6wsT2iUxptD5N8L2kZE-4" target="u6wsT2iUxptD5N8L2kZE-17">
          <mxGeometry relative="1" as="geometry" />
        </mxCell>
        <mxCell id="u6wsT2iUxptD5N8L2kZE-19" value="[Achitare eșuată]" style="edgeLabel;html=1;align=center;verticalAlign=middle;resizable=0;points=[];" vertex="1" connectable="0" parent="u6wsT2iUxptD5N8L2kZE-18">
          <mxGeometry x="-0.0154" y="1" relative="1" as="geometry">
            <mxPoint as="offset" />
          </mxGeometry>
        </mxCell>
        <mxCell id="u6wsT2iUxptD5N8L2kZE-23" style="edgeStyle=orthogonalEdgeStyle;rounded=0;orthogonalLoop=1;jettySize=auto;html=1;entryX=0.5;entryY=0;entryDx=0;entryDy=0;" edge="1" parent="1" source="u6wsT2iUxptD5N8L2kZE-17" target="u6wsT2iUxptD5N8L2kZE-21">
          <mxGeometry relative="1" as="geometry" />
        </mxCell>
        <mxCell id="u6wsT2iUxptD5N8L2kZE-17" value="Neplătită" style="rounded=1;whiteSpace=wrap;html=1;" vertex="1" parent="1">
          <mxGeometry x="220" y="380" width="120" height="60" as="geometry" />
        </mxCell>
        <mxCell id="u6wsT2iUxptD5N8L2kZE-24" style="edgeStyle=orthogonalEdgeStyle;rounded=0;orthogonalLoop=1;jettySize=auto;html=1;entryX=0.5;entryY=0;entryDx=0;entryDy=0;" edge="1" parent="1" source="u6wsT2iUxptD5N8L2kZE-21" target="u6wsT2iUxptD5N8L2kZE-22">
          <mxGeometry relative="1" as="geometry" />
        </mxCell>
        <mxCell id="u6wsT2iUxptD5N8L2kZE-21" value="Anulată" style="rounded=1;whiteSpace=wrap;html=1;" vertex="1" parent="1">
          <mxGeometry x="220" y="470" width="120" height="60" as="geometry" />
        </mxCell>
        <mxCell id="u6wsT2iUxptD5N8L2kZE-22" value="" style="ellipse;html=1;shape=endState;fillColor=#000000;strokeColor=#ff0000;" vertex="1" parent="1">
          <mxGeometry x="265" y="560" width="30" height="30" as="geometry" />
        </mxCell>
        <mxCell id="u6wsT2iUxptD5N8L2kZE-25" value="" style="ellipse;html=1;shape=startState;fillColor=#000000;strokeColor=#ff0000;" vertex="1" parent="1">
          <mxGeometry x="105" y="640" width="30" height="30" as="geometry" />
        </mxCell>
        <mxCell id="u6wsT2iUxptD5N8L2kZE-26" value="" style="edgeStyle=orthogonalEdgeStyle;html=1;verticalAlign=bottom;endArrow=open;endSize=8;strokeColor=#ff0000;rounded=0;" edge="1" parent="1" source="u6wsT2iUxptD5N8L2kZE-25">
          <mxGeometry relative="1" as="geometry">
            <mxPoint x="120" y="710" as="targetPoint" />
          </mxGeometry>
        </mxCell>
        <mxCell id="u6wsT2iUxptD5N8L2kZE-27" style="edgeStyle=orthogonalEdgeStyle;rounded=0;orthogonalLoop=1;jettySize=auto;html=1;" edge="1" parent="1" source="u6wsT2iUxptD5N8L2kZE-28" target="u6wsT2iUxptD5N8L2kZE-29">
          <mxGeometry relative="1" as="geometry" />
        </mxCell>
        <mxCell id="u6wsT2iUxptD5N8L2kZE-47" value="[filtre]" style="edgeLabel;html=1;align=center;verticalAlign=middle;resizable=0;points=[];" vertex="1" connectable="0" parent="u6wsT2iUxptD5N8L2kZE-27">
          <mxGeometry x="-0.2013" y="-1" relative="1" as="geometry">
            <mxPoint x="4" y="-1" as="offset" />
          </mxGeometry>
        </mxCell>
        <mxCell id="u6wsT2iUxptD5N8L2kZE-44" style="edgeStyle=orthogonalEdgeStyle;rounded=0;orthogonalLoop=1;jettySize=auto;html=1;entryX=0.5;entryY=0;entryDx=0;entryDy=0;" edge="1" parent="1" source="u6wsT2iUxptD5N8L2kZE-28" target="u6wsT2iUxptD5N8L2kZE-31">
          <mxGeometry relative="1" as="geometry" />
        </mxCell>
        <mxCell id="u6wsT2iUxptD5N8L2kZE-46" value="[fără filtre]" style="edgeLabel;html=1;align=center;verticalAlign=middle;resizable=0;points=[];" vertex="1" connectable="0" parent="u6wsT2iUxptD5N8L2kZE-44">
          <mxGeometry x="-0.248" relative="1" as="geometry">
            <mxPoint as="offset" />
          </mxGeometry>
        </mxCell>
        <mxCell id="u6wsT2iUxptD5N8L2kZE-28" value="Disponibilă" style="rounded=1;whiteSpace=wrap;html=1;" vertex="1" parent="1">
          <mxGeometry x="60" y="710" width="120" height="60" as="geometry" />
        </mxCell>
        <mxCell id="u6wsT2iUxptD5N8L2kZE-50" style="edgeStyle=orthogonalEdgeStyle;rounded=0;orthogonalLoop=1;jettySize=auto;html=1;entryX=1;entryY=0.5;entryDx=0;entryDy=0;" edge="1" parent="1" source="u6wsT2iUxptD5N8L2kZE-29" target="u6wsT2iUxptD5N8L2kZE-31">
          <mxGeometry relative="1" as="geometry">
            <Array as="points">
              <mxPoint x="300" y="860" />
            </Array>
          </mxGeometry>
        </mxCell>
        <mxCell id="u6wsT2iUxptD5N8L2kZE-52" value="[filtrele coincid]" style="edgeLabel;html=1;align=center;verticalAlign=middle;resizable=0;points=[];" vertex="1" connectable="0" parent="u6wsT2iUxptD5N8L2kZE-50">
          <mxGeometry x="-0.6673" y="2" relative="1" as="geometry">
            <mxPoint as="offset" />
          </mxGeometry>
        </mxCell>
        <mxCell id="u6wsT2iUxptD5N8L2kZE-53" style="edgeStyle=orthogonalEdgeStyle;rounded=0;orthogonalLoop=1;jettySize=auto;html=1;entryX=0;entryY=0.5;entryDx=0;entryDy=0;" edge="1" parent="1" source="u6wsT2iUxptD5N8L2kZE-29" target="u6wsT2iUxptD5N8L2kZE-49">
          <mxGeometry relative="1" as="geometry" />
        </mxCell>
        <mxCell id="u6wsT2iUxptD5N8L2kZE-54" value="[filtrele nu coincid]" style="edgeLabel;html=1;align=center;verticalAlign=middle;resizable=0;points=[];" vertex="1" connectable="0" parent="u6wsT2iUxptD5N8L2kZE-53">
          <mxGeometry x="-0.0476" y="-1" relative="1" as="geometry">
            <mxPoint as="offset" />
          </mxGeometry>
        </mxCell>
        <mxCell id="u6wsT2iUxptD5N8L2kZE-29" value="Filtrată" style="rounded=1;whiteSpace=wrap;html=1;" vertex="1" parent="1">
          <mxGeometry x="240" y="710" width="120" height="60" as="geometry" />
        </mxCell>
        <mxCell id="u6wsT2iUxptD5N8L2kZE-48" style="edgeStyle=orthogonalEdgeStyle;rounded=0;orthogonalLoop=1;jettySize=auto;html=1;entryX=0.5;entryY=0;entryDx=0;entryDy=0;" edge="1" parent="1" source="u6wsT2iUxptD5N8L2kZE-31" target="u6wsT2iUxptD5N8L2kZE-34">
          <mxGeometry relative="1" as="geometry" />
        </mxCell>
        <mxCell id="u6wsT2iUxptD5N8L2kZE-31" value="Selectată" style="rounded=1;whiteSpace=wrap;html=1;" vertex="1" parent="1">
          <mxGeometry x="60" y="830" width="120" height="60" as="geometry" />
        </mxCell>
        <mxCell id="u6wsT2iUxptD5N8L2kZE-34" value="" style="ellipse;html=1;shape=endState;fillColor=#000000;strokeColor=#ff0000;" vertex="1" parent="1">
          <mxGeometry x="105" y="930" width="30" height="30" as="geometry" />
        </mxCell>
        <mxCell id="u6wsT2iUxptD5N8L2kZE-56" style="edgeStyle=orthogonalEdgeStyle;rounded=0;orthogonalLoop=1;jettySize=auto;html=1;entryX=0.5;entryY=0;entryDx=0;entryDy=0;" edge="1" parent="1" source="u6wsT2iUxptD5N8L2kZE-49" target="u6wsT2iUxptD5N8L2kZE-55">
          <mxGeometry relative="1" as="geometry" />
        </mxCell>
        <mxCell id="u6wsT2iUxptD5N8L2kZE-49" value="Neselectată" style="rounded=1;whiteSpace=wrap;html=1;" vertex="1" parent="1">
          <mxGeometry x="480" y="710" width="120" height="60" as="geometry" />
        </mxCell>
        <mxCell id="u6wsT2iUxptD5N8L2kZE-55" value="" style="ellipse;html=1;shape=endState;fillColor=#000000;strokeColor=#ff0000;" vertex="1" parent="1">
          <mxGeometry x="525" y="930" width="30" height="30" as="geometry" />
        </mxCell>
        <mxCell id="u6wsT2iUxptD5N8L2kZE-60" style="rounded=0;orthogonalLoop=1;jettySize=auto;html=1;" edge="1" parent="1" target="u6wsT2iUxptD5N8L2kZE-58">
          <mxGeometry relative="1" as="geometry">
            <mxPoint x="1155" y="190" as="sourcePoint" />
          </mxGeometry>
        </mxCell>
        <mxCell id="u6wsT2iUxptD5N8L2kZE-57" value="Vizitator" style="shape=umlActor;verticalLabelPosition=bottom;verticalAlign=top;html=1;outlineConnect=0;" vertex="1" parent="1">
          <mxGeometry x="1140" y="100" width="30" height="60" as="geometry" />
        </mxCell>
        <mxCell id="u6wsT2iUxptD5N8L2kZE-73" style="edgeStyle=none;shape=connector;rounded=0;orthogonalLoop=1;jettySize=auto;html=1;entryX=0.5;entryY=0;entryDx=0;entryDy=0;dashed=1;strokeColor=default;align=center;verticalAlign=middle;fontFamily=Helvetica;fontSize=11;fontColor=default;labelBackgroundColor=default;endArrow=open;endSize=12;" edge="1" parent="1" source="u6wsT2iUxptD5N8L2kZE-58" target="u6wsT2iUxptD5N8L2kZE-66">
          <mxGeometry relative="1" as="geometry" />
        </mxCell>
        <mxCell id="u6wsT2iUxptD5N8L2kZE-78" value="include" style="edgeLabel;html=1;align=center;verticalAlign=middle;resizable=0;points=[];fontFamily=Helvetica;fontSize=11;fontColor=default;labelBackgroundColor=default;" vertex="1" connectable="0" parent="u6wsT2iUxptD5N8L2kZE-73">
          <mxGeometry x="-0.216" relative="1" as="geometry">
            <mxPoint as="offset" />
          </mxGeometry>
        </mxCell>
        <mxCell id="u6wsT2iUxptD5N8L2kZE-74" style="edgeStyle=none;shape=connector;rounded=0;orthogonalLoop=1;jettySize=auto;html=1;dashed=1;strokeColor=default;align=center;verticalAlign=middle;fontFamily=Helvetica;fontSize=11;fontColor=default;labelBackgroundColor=default;endArrow=open;endSize=12;" edge="1" parent="1" source="u6wsT2iUxptD5N8L2kZE-58" target="u6wsT2iUxptD5N8L2kZE-64">
          <mxGeometry relative="1" as="geometry" />
        </mxCell>
        <mxCell id="u6wsT2iUxptD5N8L2kZE-80" value="include" style="edgeLabel;html=1;align=center;verticalAlign=middle;resizable=0;points=[];fontFamily=Helvetica;fontSize=11;fontColor=default;labelBackgroundColor=default;" vertex="1" connectable="0" parent="u6wsT2iUxptD5N8L2kZE-74">
          <mxGeometry x="-0.2919" y="2" relative="1" as="geometry">
            <mxPoint as="offset" />
          </mxGeometry>
        </mxCell>
        <mxCell id="u6wsT2iUxptD5N8L2kZE-75" style="edgeStyle=none;shape=connector;rounded=0;orthogonalLoop=1;jettySize=auto;html=1;dashed=1;strokeColor=default;align=center;verticalAlign=middle;fontFamily=Helvetica;fontSize=11;fontColor=default;labelBackgroundColor=default;endArrow=open;endSize=12;" edge="1" parent="1" source="u6wsT2iUxptD5N8L2kZE-58" target="u6wsT2iUxptD5N8L2kZE-63">
          <mxGeometry relative="1" as="geometry" />
        </mxCell>
        <mxCell id="u6wsT2iUxptD5N8L2kZE-77" value="include" style="edgeLabel;html=1;align=center;verticalAlign=middle;resizable=0;points=[];fontFamily=Helvetica;fontSize=11;fontColor=default;labelBackgroundColor=default;" vertex="1" connectable="0" parent="u6wsT2iUxptD5N8L2kZE-75">
          <mxGeometry x="0.0209" y="-2" relative="1" as="geometry">
            <mxPoint as="offset" />
          </mxGeometry>
        </mxCell>
        <mxCell id="u6wsT2iUxptD5N8L2kZE-76" style="edgeStyle=none;shape=connector;rounded=0;orthogonalLoop=1;jettySize=auto;html=1;entryX=0.25;entryY=0;entryDx=0;entryDy=0;dashed=1;strokeColor=default;align=center;verticalAlign=middle;fontFamily=Helvetica;fontSize=11;fontColor=default;labelBackgroundColor=default;endArrow=open;endSize=12;" edge="1" parent="1" source="u6wsT2iUxptD5N8L2kZE-58" target="u6wsT2iUxptD5N8L2kZE-65">
          <mxGeometry relative="1" as="geometry" />
        </mxCell>
        <mxCell id="u6wsT2iUxptD5N8L2kZE-79" value="include" style="edgeLabel;html=1;align=center;verticalAlign=middle;resizable=0;points=[];fontFamily=Helvetica;fontSize=11;fontColor=default;labelBackgroundColor=default;" vertex="1" connectable="0" parent="u6wsT2iUxptD5N8L2kZE-76">
          <mxGeometry x="-0.1474" relative="1" as="geometry">
            <mxPoint as="offset" />
          </mxGeometry>
        </mxCell>
        <mxCell id="u6wsT2iUxptD5N8L2kZE-58" value="Achiziție produs" style="rounded=1;whiteSpace=wrap;html=1;" vertex="1" parent="1">
          <mxGeometry x="1095" y="240" width="120" height="60" as="geometry" />
        </mxCell>
        <mxCell id="u6wsT2iUxptD5N8L2kZE-62" value="Vizualizare produs" style="rounded=1;whiteSpace=wrap;html=1;" vertex="1" parent="1">
          <mxGeometry x="900" y="320" width="120" height="60" as="geometry" />
        </mxCell>
        <mxCell id="u6wsT2iUxptD5N8L2kZE-63" value="Adăugare produs în coș" style="rounded=1;whiteSpace=wrap;html=1;" vertex="1" parent="1">
          <mxGeometry x="975" y="410" width="120" height="60" as="geometry" />
        </mxCell>
        <mxCell id="u6wsT2iUxptD5N8L2kZE-64" value="Revizuire coș" style="rounded=1;whiteSpace=wrap;html=1;" vertex="1" parent="1">
          <mxGeometry x="1280" y="320" width="120" height="60" as="geometry" />
        </mxCell>
        <mxCell id="u6wsT2iUxptD5N8L2kZE-65" value="Finalizare comandă" style="rounded=1;whiteSpace=wrap;html=1;" vertex="1" parent="1">
          <mxGeometry x="1215" y="410" width="120" height="60" as="geometry" />
        </mxCell>
        <mxCell id="u6wsT2iUxptD5N8L2kZE-66" value="Plată" style="rounded=1;whiteSpace=wrap;html=1;" vertex="1" parent="1">
          <mxGeometry x="1095" y="480" width="120" height="60" as="geometry" />
        </mxCell>
        <mxCell id="u6wsT2iUxptD5N8L2kZE-71" value="include" style="endArrow=open;endSize=12;dashed=1;html=1;rounded=0;strokeColor=default;align=center;verticalAlign=middle;fontFamily=Helvetica;fontSize=11;fontColor=default;labelBackgroundColor=default;exitX=0;exitY=1;exitDx=0;exitDy=0;entryX=1;entryY=0;entryDx=0;entryDy=0;" edge="1" parent="1" source="u6wsT2iUxptD5N8L2kZE-58" target="u6wsT2iUxptD5N8L2kZE-62">
          <mxGeometry width="160" relative="1" as="geometry">
            <mxPoint x="1000" y="370" as="sourcePoint" />
            <mxPoint x="1160" y="370" as="targetPoint" />
          </mxGeometry>
        </mxCell>
      </root>
    </mxGraphModel>
  </diagram>
</mxfile>
